<?xml version="1.0" encoding="UTF-8" standalone="no"?>
<!-- Created with Inkscape (http://www.inkscape.org/) -->

<svg
   width="198.73967mm"
   height="150.06235mm"
   viewBox="0 0 198.73967 150.06235"
   version="1.1"
   id="svg1"
   xml:space="preserve"
   xmlns="http://www.w3.org/2000/svg"
   xmlns:svg="http://www.w3.org/2000/svg"><defs
     id="defs1" /><g
     id="layer1"
     transform="translate(269.87471,-70.577859)"><path
       style="fill:#000000"
       d="m -210.06229,218.57344 0.0773,-2.02304 1.02553,-0.10446 c 1.73346,-0.17658 2.5695,1.12758 1.6053,2.50416 -0.27188,0.38816 -0.685,0.58804 -1.21539,0.58804 -0.58101,0 -0.84184,0.14654 -0.9419,0.52917 -0.31822,1.21685 -0.6228,0.39077 -0.55081,-1.49387 z m 2.10622,-0.21809 c 0.22772,-0.49978 0.21876,-0.74887 -0.0381,-1.05833 -0.72518,-0.87378 -1.58137,-0.0279 -1.19713,1.18279 0.23128,0.72869 0.87608,0.66372 1.2352,-0.12446 z m -52.31632,1.42062 c -0.099,-0.16024 -0.16432,-1.44016 -0.14509,-2.84427 0.0192,-1.40411 -0.0608,-2.69877 -0.1778,-2.87702 -0.15073,-0.22959 -1.52077,-0.3453 -4.69917,-0.39687 l -4.4864,-0.0728 -0.0793,-1.52136 c -0.0489,-0.93644 0.0274,-1.52135 0.19843,-1.52135 0.29895,0 0.35837,0.27479 0.29061,1.34404 -0.0818,1.29109 0.0928,1.31408 9.41141,1.23931 l 8.69973,-0.0698 0.0806,-1.25677 c 0.0444,-0.69122 0.19913,-1.25677 0.34394,-1.25677 0.15333,0 0.23015,0.63533 0.18394,1.52135 l -0.0794,1.52136 -4.49792,0.13229 -4.49792,0.13229 -0.0781,2.24896 c -0.0429,1.23693 -0.0109,2.51685 0.0712,2.84427 l 0.14926,0.59531 h 22.89703 c 15.19731,0 22.84204,0.089 22.73351,0.26459 -0.24061,0.3893 -46.07784,0.36283 -46.31862,-0.0268 z m 53.99132,-0.50277 c -0.30639,-0.49574 0.1515,-1.32256 0.73242,-1.32256 0.43887,0 0.4937,0.0706 0.24676,0.3175 -0.46323,0.46323 -0.38917,0.74084 0.19764,0.74084 0.43165,0 0.50831,-0.17154 0.47295,-1.05834 -0.0445,-1.11498 -0.5265,-1.40119 -1.22544,-0.7276 -0.27755,0.26748 -0.3252,0.22953 -0.24916,-0.19844 0.0705,-0.39688 0.3372,-0.54944 1.06671,-0.61025 1.16717,-0.0973 1.6115,0.50063 1.48562,1.9992 -0.0801,0.95383 -0.10169,0.97096 -1.32136,1.04914 -0.68196,0.0437 -1.31472,-0.0416 -1.40614,-0.18949 z m 3.74129,0.0814 c -0.0931,-0.0931 -0.1692,-1.04232 -0.1692,-2.10947 0,-1.54831 0.0802,-1.94028 0.39688,-1.94028 0.31722,0 0.39687,0.39514 0.39687,1.96876 0,1.81938 -0.20456,2.50098 -0.62455,2.08099 z m 1.84836,-0.2179 c -0.94236,-0.94237 -0.28013,-2.77352 1.00304,-2.77352 0.69166,0 1.61352,0.88848 1.35533,1.30625 -0.27151,0.43931 -0.62005,0.33184 -0.80405,-0.24791 -0.25691,-0.80944 -1.01787,-0.68681 -0.86008,0.1386 0.0702,0.36728 0.0226,0.73269 -0.10576,0.81204 -0.39383,0.24339 0.0354,0.63686 0.69482,0.63686 0.34309,0 0.69115,-0.14883 0.77347,-0.33073 0.0823,-0.1819 0.12103,-0.0926 0.086,0.19843 -0.0838,0.69639 -1.53082,0.87195 -2.1428,0.25998 z m 3.49701,-0.19383 c -0.0229,-0.32742 -0.032,-0.76896 -0.0202,-0.98119 0.0118,-0.21224 -0.0891,-0.59238 -0.22412,-0.84478 -0.23654,-0.44198 0.1631,-1.8148 0.52691,-1.80999 0.34777,0.005 0.81385,1.43026 0.5529,1.69122 -0.39228,0.39228 -0.32076,1.3878 0.13223,1.8408 0.55367,0.55366 0.49858,0.69925 -0.26458,0.69925 -0.49722,0 -0.67181,-0.14781 -0.70314,-0.59531 z m 2.33474,0.41892 c -0.097,-0.097 -0.18476,-0.54349 -0.19499,-0.99218 -0.0102,-0.44869 -0.10833,-1.04483 -0.21801,-1.32476 -0.18174,-0.46383 0.18553,-1.73587 0.50119,-1.73587 0.0728,0 0.2704,0.29774 0.43919,0.66164 0.22763,0.49074 0.23102,0.86267 0.0131,1.43989 -0.24217,0.6416 -0.21476,0.86553 0.15613,1.27536 0.24743,0.27341 0.44988,0.57703 0.44988,0.67471 0,0.23016 -0.91662,0.23113 -1.14653,0.001 z m 2.10576,-0.22509 c -1.35344,-1.35343 0.49682,-3.55943 2.01733,-2.4052 0.63366,0.48102 0.59362,1.21918 -0.0661,1.21918 -0.35277,0 -0.52916,-0.17639 -0.52916,-0.52916 0,-0.29399 -0.17639,-0.52917 -0.39688,-0.52917 -0.26458,0 -0.39687,0.26458 -0.39687,0.79375 0,1.12516 0.0477,1.19093 0.86076,1.18801 0.97792,-0.004 0.76575,0.51063 -0.25264,0.61222 -0.48361,0.0482 -0.97846,-0.0917 -1.23639,-0.34963 z m 6.466,0.025 c -0.21753,-0.2621 -0.27038,-0.75825 -0.1541,-1.44652 0.16456,-0.97403 0.25116,-1.06012 1.2332,-1.22604 0.85291,-0.1441 1.12757,-0.0843 1.4269,0.31083 0.49745,0.6566 0.51136,2.47366 0.0189,2.47366 -0.44794,0 -0.68977,-0.57096 -0.68977,-1.62854 0,-0.61086 -0.10568,-0.77148 -0.46302,-0.70376 -0.33067,0.0627 -0.48698,0.38962 -0.54685,1.14388 -0.10011,1.26127 -0.3747,1.61944 -0.82531,1.07649 z m 3.87414,-0.0923 c -0.97603,-1.0785 -0.24043,-2.70615 1.22302,-2.70615 0.53038,0 0.70677,-0.13206 0.70677,-0.52916 0,-0.3004 0.17639,-0.52917 0.40801,-0.52917 0.33906,0 0.39494,0.34519 0.33073,2.04276 l -0.0773,2.04277 -1.06989,0.0889 c -0.79141,0.0658 -1.18741,-0.0409 -1.52136,-0.40995 z m 1.78422,-0.76306 c 0.23449,-0.93426 -0.41887,-1.66903 -1.03177,-1.16036 -0.48976,0.40647 -0.53173,1.10653 -0.0927,1.54561 0.51269,0.51268 0.93542,0.36785 1.12443,-0.38525 z m 1.86921,0.44559 c -0.35714,-0.69062 -0.36929,-0.92752 -0.0788,-1.53645 0.42296,-0.88661 1.60565,-1.10537 2.34731,-0.43418 0.65774,0.59525 0.64625,1.16945 -0.0234,1.16945 -0.35277,0 -0.52916,-0.17639 -0.52916,-0.52916 0,-0.29399 -0.17639,-0.52917 -0.39688,-0.52917 -0.26458,0 -0.39687,0.26458 -0.39687,0.79375 0,1.08804 0.0552,1.18859 0.66145,1.2046 0.96277,0.0254 0.81229,0.51365 -0.18383,0.59644 -0.86122,0.0716 -1.02784,-0.016 -1.39982,-0.73528 z m 3.46339,0.56648 c -0.0978,-0.15829 -0.0261,-0.53077 0.15932,-0.82773 0.2732,-0.43746 0.2732,-0.64239 0,-1.07986 -0.4809,-0.77004 -0.14832,-1.12112 0.5985,-0.63179 0.57443,0.37638 0.64739,0.37091 0.8924,-0.0669 0.40227,-0.71883 0.71232,-0.18113 0.31916,0.5535 -0.28769,0.53756 -0.27399,0.73259 0.0878,1.2491 0.2358,0.33664 0.42872,0.70465 0.42872,0.81779 0,0.37218 -0.73378,0.21447 -0.88943,-0.19116 -0.20169,-0.52559 -0.8752,-0.50616 -1.17748,0.034 -0.15779,0.28197 -0.30258,0.3314 -0.41898,0.14306 z m -12.80829,-1.30151 c 0.0581,-0.9049 0.19176,-1.25677 0.47751,-1.25677 0.28576,0 0.41946,0.35187 0.47752,1.25677 0.0724,1.12763 0.0233,1.25677 -0.47752,1.25677 -0.5008,0 -0.54987,-0.12914 -0.47751,-1.25677 z m -77.62418,-7.9198 c 0.19099,-0.0764 0.4192,-0.067 0.50712,0.0209 0.0879,0.0879 -0.0684,0.15046 -0.34727,0.13897 -0.30822,-0.0127 -0.37092,-0.0754 -0.15985,-0.15985 z m 2.69544,-0.21614 c 0,-0.21828 0.12757,-0.39687 0.28348,-0.39687 0.15592,0 0.46208,0.17859 0.68036,0.39687 0.35278,0.35278 0.32128,0.39688 -0.28348,0.39688 -0.42838,0 -0.68036,-0.14699 -0.68036,-0.39688 z m 6.82956,0.21614 c 0.19099,-0.0764 0.4192,-0.067 0.50712,0.0209 0.0879,0.0879 -0.0684,0.15046 -0.34727,0.13897 -0.30822,-0.0127 -0.37092,-0.0754 -0.15985,-0.15985 z m -8.8901,-0.62146 c -0.17639,-0.28245 -0.32071,-0.68383 -0.32071,-0.89196 0,-0.20813 -0.14883,-0.43847 -0.33073,-0.51187 -0.1819,-0.0734 -0.0682,-0.14285 0.2526,-0.15434 0.46466,-0.0166 0.61913,0.17 0.75936,0.91749 0.20935,1.11593 0.0799,1.34594 -0.36052,0.64068 z m 6.02929,-0.0955 c 0,-0.20271 -0.17659,-0.43633 -0.39241,-0.51915 -0.47285,-0.18145 -0.23869,-0.96436 0.28843,-0.96436 0.24483,0 0.36856,0.31089 0.36856,0.92604 0,0.50932 -0.0595,0.92604 -0.13229,0.92604 -0.0728,0 -0.13229,-0.16586 -0.13229,-0.36857 z m 2.11667,-0.29289 c 0,-0.3638 0.11906,-0.66146 0.26458,-0.66146 0.14552,0 0.26458,0.29766 0.26458,0.66146 0,0.3638 -0.11906,0.66146 -0.26458,0.66146 -0.14552,0 -0.26458,-0.29766 -0.26458,-0.66146 z m 1.63908,0 c 0.005,-0.43656 0.0647,-0.58312 0.13177,-0.32569 0.0671,0.25743 0.0627,0.61462 -0.01,0.79375 -0.0725,0.17913 -0.12736,-0.0315 -0.12197,-0.46806 z m -6.85421,-0.20859 c 0.12883,-0.34013 0.0131,-0.54001 -0.41167,-0.71084 -0.56937,-0.22899 -0.56496,-0.23826 0.12108,-0.25442 0.91947,-0.0217 1.16478,0.3943 0.57645,0.97744 -0.44222,0.43833 -0.45627,0.43773 -0.28586,-0.0122 z m 5.94273,-0.89268 c 0.1819,-0.0734 0.47956,-0.0734 0.66146,0 0.1819,0.0734 0.0331,0.13345 -0.33073,0.13345 -0.3638,0 -0.51263,-0.06 -0.33073,-0.13345 z m -10.39606,-4.1407 c -0.0858,-0.34172 -0.11834,-1.14754 -0.0724,-1.79071 l 0.0836,-1.1694 6.22412,-0.0708 6.22413,-0.0708 7.40014,-7.40368 c 7.23011,-7.23358 7.37891,-7.40378 6.47588,-7.40774 -0.50835,-0.002 -1.0735,-0.0988 -1.25589,-0.2146 -0.26379,-0.16749 -0.3179,-8.16074 -0.26458,-39.08814 l 0.067,-38.87759 6.08542,-0.14483 c 3.34698,-0.0797 6.11506,-0.16896 6.15131,-0.19844 0.0362,-0.0295 0.0306,-2.6237 -0.0125,-5.76493 -0.0506,-3.68874 0.0197,-5.84287 0.19869,-6.08278 0.22074,-0.29592 1.48772,-0.38545 6.23022,-0.44024 l 5.95312,-0.0688 0.13229,-6.08541 0.13229,-6.08542 5.88698,-0.0712 5.88698,-0.0712 v -5.76286 c 0,-4.12944 0.09,-5.852845 0.3175,-6.080354 0.24526,-0.24526 15.44725,-0.3175 66.81384,-0.3175 h 66.496343 l 0.191889,0.595313 c 0.105539,0.327422 0.161331,17.946391 0.123983,39.153271 l -0.06791,38.55797 -5.885219,0.0712 -5.88522,0.0712 -0.07121,5.88698 c -0.05358,4.42985 -0.151817,5.8929 -0.396875,5.91088 -0.179117,0.0131 -2.726697,0.004 -5.661289,-0.0212 -3.502677,-0.0296 -5.52503,0.0563 -5.886979,0.24999 -0.532823,0.28516 -0.551353,0.48861 -0.551353,6.05369 0,4.12613 -0.09,5.84861 -0.3175,6.0761 -0.22797,0.22796 -1.98144,0.3175 -6.21771,0.3175 h -5.90021 v 6.05711 c 0,5.27805 -0.0538,6.07776 -0.41832,6.21764 -0.23008,0.0883 -29.60708,0.15914 -65.28223,0.15746 l -64.8639,-0.003 -7.54434,7.54426 -7.54434,7.54426 -0.13229,1.65315 -0.13229,1.65315 -6.27762,0.0709 -6.27761,0.0709 z m 2.77495,-0.297 c 0.17326,-0.20877 0.27714,-0.77432 0.23083,-1.25677 -0.0817,-0.85075 -0.12006,-0.87718 -1.27482,-0.87718 -1.15476,0 -1.19316,0.0264 -1.27483,0.87718 -0.10432,1.08688 0.32376,1.63637 1.27483,1.63637 0.40092,0 0.87072,-0.17082 1.04399,-0.3796 z m 3.05705,-0.94332 v -1.19063 h -1.05833 c -0.90974,0 -1.0707,0.0874 -1.14641,0.62223 -0.0484,0.34222 -0.0147,0.91472 0.0751,1.27221 0.14188,0.56531 0.29124,0.63936 1.14641,0.5684 0.97688,-0.0811 0.98327,-0.0893 0.98327,-1.27221 z m 3.175,0 v -1.19063 h -1.05833 c -0.90974,0 -1.0707,0.0874 -1.14641,0.62223 -0.0484,0.34222 -0.0147,0.91472 0.0751,1.27221 0.14188,0.56531 0.29124,0.63936 1.14641,0.5684 0.97688,-0.0811 0.98327,-0.0893 0.98327,-1.27221 z m 3.175,0 v -1.19063 h -1.05833 c -1.00691,0 -1.06246,0.043 -1.14313,0.88509 -0.13333,1.39184 0.0806,1.67159 1.20715,1.57841 0.98987,-0.0819 0.99431,-0.0876 0.99431,-1.27287 z m 51.23256,-52.82005 35.39607,-35.39533 0.0773,-1.59908 0.0774,-1.59908 1.60983,-0.0776 c 1.51335,-0.073 1.67886,-0.14796 2.76162,-1.25122 0.63349,-0.64547 1.08039,-1.24499 0.99312,-1.33226 -0.17854,-0.17854 -29.05823,-0.19175 -29.23661,-0.0134 -0.0629,0.0629 -0.10916,1.91192 -0.10284,4.10897 0.006,2.19704 -0.0566,4.17206 -0.1398,4.38893 -0.13255,0.34541 -3.17622,0.39431 -24.54405,0.39431 -18.61935,0 -24.46788,0.0751 -24.71024,0.3175 -0.43671,0.43671 -0.46304,66.38491 -0.0268,67.19998 0.24324,0.45449 0.46675,0.51949 1.3698,0.39837 1.02439,-0.1374 2.87531,-1.94087 36.47522,-35.54007 z m 94.52455,35.20362 c 0.0883,-0.23018 0.1606,-17.55378 0.1606,-38.49688 v -38.07836 l -0.7276,0.004 c -0.40018,0.002 -12.20039,-0.0108 -26.22268,-0.0292 l -25.49507,-0.0335 -1.54716,1.53102 c -1.5139,1.49811 -1.54882,1.56555 -1.62472,3.13809 l -0.0776,1.60708 -1.6001,0.0774 -1.6001,0.0774 -35.01256,35.01629 c -20.70765,20.70985 -34.93824,35.13655 -34.83064,35.31064 0.13273,0.21477 17.51653,0.29435 64.29946,0.29435 58.22273,0 64.1323,-0.0385 64.27813,-0.41851 z m -20.80143,-70.11901 c -0.0774,-0.13119 -0.12533,-0.82507 -0.10653,-1.54196 0.0314,-1.19586 0.0961,-1.32004 0.78418,-1.50446 1.1454,-0.307 1.49896,-0.0449 1.49896,1.11138 0,0.89786 -0.0902,1.04745 -0.7276,1.20614 -0.40018,0.0996 -0.85826,0.35807 -1.01795,0.57429 -0.15968,0.21622 -0.35366,0.2858 -0.43106,0.15461 z m 1.59888,-2.04486 c 0.0669,-0.5654 -0.0259,-0.7072 -0.46302,-0.7072 -0.39639,0 -0.54675,0.16977 -0.54675,0.61736 0,1.20131 0.86903,1.27863 1.00977,0.0898 z m 2.79494,1.02526 c -0.20516,-0.53463 0.1,-0.93871 0.70883,-0.93871 0.71469,0 0.64608,-0.73142 -0.0818,-0.87161 -0.36852,-0.071 -0.21733,-0.12839 0.39687,-0.15069 0.98717,-0.0358 0.99219,-0.0307 0.99219,1.0223 0,1.05638 -0.33658,1.41268 -0.62485,0.66146 -0.0838,-0.21828 -0.33462,-0.39688 -0.55747,-0.39688 -0.48599,0 -0.52224,0.30628 -0.0877,0.74084 0.24694,0.24694 0.2157,0.3175 -0.1406,0.3175 -0.25195,0 -0.52444,-0.1729 -0.60553,-0.38421 z m 6.14504,0.0404 c -0.31278,-0.22871 -0.4404,-0.60508 -0.3813,-1.12448 0.0788,-0.69208 0.20148,-0.79002 1.08103,-0.86282 0.85206,-0.0705 0.99219,-0.005 0.99219,0.46302 0,0.63291 -0.40224,0.72835 -0.62485,0.14826 -0.25252,-0.65805 -0.63048,-0.44812 -0.75805,0.42104 -0.0949,0.6466 -0.004,0.86476 0.43299,1.04157 0.37128,0.15014 0.41748,0.22916 0.14059,0.24042 -0.22685,0.009 -0.62402,-0.13793 -0.8826,-0.32701 z m 3.8643,-0.0632 c -0.27927,-0.31664 -0.27687,-0.38681 0.0132,-0.38681 0.19492,0 0.48624,0.13184 0.64738,0.29299 0.21426,0.21426 0.37114,0.14696 0.58383,-0.25046 0.23169,-0.43292 0.20366,-0.59224 -0.13785,-0.78336 -0.34407,-0.19255 -0.37039,-0.34886 -0.13333,-0.79182 0.3109,-0.58091 6.2e-4,-1.02559 -0.4998,-0.71631 -0.14553,0.0899 -0.26459,0.0374 -0.26459,-0.11668 0,-0.37259 1.24179,-0.36094 1.4734,0.0138 0.35631,0.57652 0.34423,2.42407 -0.0182,2.78651 -0.46454,0.46455 -1.23155,0.44248 -1.66405,-0.0479 z m -7.36216,-0.23834 c -0.32695,-0.85203 0.12065,-1.66142 1.01804,-1.8409 0.97425,-0.19485 1.52591,0.29182 1.52591,1.34612 0,0.86227 -0.73885,0.77779 -0.84232,-0.0963 -0.12113,-1.02315 -0.71632,-1.09075 -0.91371,-0.10378 -0.19196,0.95979 -0.56127,1.28549 -0.78792,0.69487 z m -4.186,-0.12109 c -0.21456,-0.34715 0.14735,-2.67322 0.41591,-2.67322 0.12574,0 0.22862,0.46652 0.22862,1.0367 0,0.57018 0.0723,1.22502 0.1606,1.4552 0.17262,0.44984 -0.54,0.61032 -0.80513,0.18132 z m 30.378937,58.82835 c 0.29388,-0.76584 0.18648,-75.51635 -0.10929,-76.06901 -0.26936,-0.5033 -0.80297,-0.51381 -26.085447,-0.51381 h -25.81047 l -1.69689,1.62944 c -1.62023,1.555834 -1.69689,1.686334 -1.69689,2.88878 0,1.96162 -0.11465,2.09637 -1.78374,2.09637 h -1.46254 l -2.48001,2.43205 c -1.36401,1.33764 -2.38441,2.52767 -2.26756,2.64451 0.11685,0.11685 11.75615,0.24282 25.86513,0.27992 l 25.65268,0.0675 0.0654,32.14688 c 0.0359,17.68078 0.1215,32.2957 0.19013,32.4776 0.0945,0.25041 1.50143,0.33073 5.79332,0.33073 4.880817,0 5.690447,-0.0571 5.826227,-0.41093 z m -20.809617,-69.86289 c -0.10645,-0.10645 -0.19354,-0.82854 -0.19354,-1.60465 v -1.411106 h 1.00542 c 1.08862,0 1.64042,0.36875 1.64042,1.096246 0,0.54059 -0.97531,1.30025 -1.44028,1.12183 -0.17666,-0.0678 -0.43309,0.1275 -0.56984,0.43398 -0.13676,0.30648 -0.33574,0.47014 -0.44218,0.3637 z m 1.61359,-2.12776 c -0.12333,-0.640366 -0.84601,-0.635646 -0.96964,0.006 -0.10699,0.55552 0.4889,1.06011 0.83876,0.71025 0.124,-0.12401 0.1829,-0.44647 0.13088,-0.71659 z m 3.02152,1.31802 c -0.41885,-0.16901 -0.4391,-1.22791 -0.0208,-1.08848 0.17045,0.0568 0.32915,0.3644 0.35266,0.68351 0.0235,0.31911 0.0329,0.5708 0.0208,0.55931 -0.0121,-0.0115 -0.17076,-0.0809 -0.35266,-0.15434 z m 9.81305,-0.23744 c -0.0947,-0.2468 0.12134,-0.70461 0.53748,-1.13896 0.90182,-0.941296 0.91639,-1.471506 0.0344,-1.250136 -0.49682,0.1247 -0.66145,0.0618 -0.66145,-0.25266 0,-0.572584 1.56601,-0.41326 1.94883,0.19827 0.22262,0.35561 0.14424,0.59821 -0.37019,1.145796 -0.60816,0.64736 -0.62135,0.71753 -0.19369,1.03024 0.25239,0.18456 0.38138,0.41309 0.28663,0.50784 -0.33343,0.33343 -1.42545,0.16749 -1.58197,-0.24039 z m -11.29031,-0.0283 c -0.27905,-0.27906 -0.20502,-2.685096 0.0882,-2.866316 0.16526,-0.10214 0.26458,0.43822 0.26458,1.43959 0,1.617116 -0.0322,1.747306 -0.35278,1.426726 z m 2.46945,-0.904 c 0,-1.378536 0.62562,-1.287126 0.74357,0.10865 0.0625,0.73917 -0.0167,0.97174 -0.33073,0.97174 -0.30667,0 -0.41284,-0.27786 -0.41284,-1.08039 z m 1.63182,0.60737 c -0.48131,-0.86138 -0.1701,-1.565126 0.75197,-1.700456 0.4284,-0.0629 0.87965,-0.0461 1.00279,0.0374 0.3733,0.25295 0.60371,1.122226 0.43682,1.648036 -0.21029,0.66258 -0.6484,0.35609 -0.6484,-0.45361 0,-0.35521 -0.11907,-0.645836 -0.26459,-0.645836 -0.14552,0 -0.35388,-0.0298 -0.46302,-0.0661 -0.10914,-0.0364 -0.26119,0.350566 -0.33789,0.859896 -0.13654,0.90673 -0.1465,0.91342 -0.47768,0.32073 z m 2.86609,-0.0562 c -0.43128,-0.80585 0.0985,-1.587496 1.07595,-1.587496 0.47043,0 0.85644,0.166 0.94942,0.40829 0.2365,0.616296 -0.16909,0.846396 -0.55696,0.315956 -0.27628,-0.377826 -0.39473,-0.400076 -0.62875,-0.1181 -0.15859,0.19108 -0.21991,0.60912 -0.13627,0.92897 0.19133,0.73165 -0.31949,0.76969 -0.70339,0.0524 z m -5.82083,-1.322916 c 0,-0.14552 0.24515,-0.26458 0.54478,-0.26458 0.29963,0 0.4712,0.11906 0.38126,0.26458 -0.0899,0.14552 -0.33509,0.26459 -0.54478,0.26459 -0.20969,0 -0.38126,-0.11907 -0.38126,-0.26459 z m 29.038916,22.385486 c 0.04958,-28.15381 -0.01138,-38.1663 -0.234003,-38.43455 -0.251983,-0.30362 -4.51963,-0.35134 -26.185543,-0.29277 l -25.88451,0.07 -1.45287,1.43487 c -1.41035,1.39289 -1.45514,1.48193 -1.53045,3.04271 l -0.0776,1.60783 -1.5875,0.0778 -1.5875,0.0778 -2.57969,2.56304 c -1.41883,1.40967 -2.57969,2.65457 -2.57969,2.76644 0,0.11188 11.59586,0.20341 25.76857,0.20341 23.253487,0 25.784237,0.0408 25.929167,0.41851 0.0883,0.23018 0.1606,14.7955 0.1606,32.36736 0,17.57187 0.0816,32.03048 0.18141,32.13026 0.0998,0.0998 2.748915,0.14939 5.886977,0.11024 l 5.705566,-0.0712 z M -104.81314,88.6025 c 0,-1.54165 0.007,-1.55586 0.85989,-1.72837 0.68841,-0.13925 0.95224,-0.0609 1.32292,0.39311 0.25466,0.31188 0.46302,0.71788 0.46302,0.90222 0,0.37579 -0.70889,1.0376 -1.16034,1.08328 -0.16218,0.0164 -0.44369,0.048 -0.6256,0.0701 -0.1819,0.0222 -0.33072,0.2189 -0.33072,0.43718 0,0.21828 -0.11907,0.39687 -0.26459,0.39687 -0.14636,0 -0.26458,-0.69453 -0.26458,-1.55442 z m 1.80327,-0.20104 c 0.16776,-0.29977 0.11088,-0.56702 -0.18529,-0.87067 -0.38115,-0.39077 -0.46051,-0.39447 -0.73401,-0.0342 -0.20329,0.26775 -0.22244,0.56123 -0.0568,0.87067 0.31208,0.58313 0.66208,0.59541 0.97613,0.0342 z m 1.37173,-0.90599 c 0,-1.00136 0.0993,-1.54173 0.26458,-1.43959 0.14552,0.0899 0.26459,0.81134 0.26459,1.60312 0,0.79177 -0.11907,1.43959 -0.26459,1.43959 -0.14727,0 -0.26458,-0.71076 -0.26458,-1.60312 z m 1.05833,1.23455 c 0,-0.51599 0.718777,-0.73759 0.895837,-0.27618 0.19233,0.50118 0.69166,0.48912 0.69166,-0.0167 0,-0.21828 -0.13364,-0.39687 -0.29698,-0.39687 -0.21844,0 -0.21905,-0.0939 -0.002,-0.35508 0.38583,-0.46489 0.056,-0.78577 -0.41004,-0.39895 -0.28541,0.23686 -0.326187,0.20864 -0.19448,-0.13459 0.1895,-0.49382 1.04489,-0.58358 1.31995,-0.13851 0.10055,0.16268 0.27363,0.69847 0.38463,1.19062 l 0.20182,0.89484 h -1.29505 c -0.930567,0 -1.295057,-0.10373 -1.295057,-0.36857 z m 3.174997,-0.68976 c 0,-0.79567 0.10553,-1.05834 0.42518,-1.05834 0.27901,0 0.36997,0.14388 0.26459,0.41852 -0.0883,0.23018 -0.1606,0.70643 -0.1606,1.05833 0,0.3519 -0.11906,0.63982 -0.26458,0.63982 -0.14553,0 -0.26459,-0.47625 -0.26459,-1.05833 z m 1.5875,0.26458 c 0,-0.43656 -0.11906,-0.79375 -0.26458,-0.79375 -0.14552,0 -0.26458,-0.17859 -0.26458,-0.39688 0,-0.47841 0.30871,-0.51149 0.74083,-0.0794 0.38311,0.38311 0.4262,2.06375 0.0529,2.06375 -0.14553,0 -0.26459,-0.35719 -0.26459,-0.79375 z m 1.375836,0.47625 c -0.469994,-0.46999 -0.386359,-1.12567 0.212741,-1.66785 0.438126,-0.3965 0.644967,-0.42759 1.190625,-0.17897 0.884889,0.40318 0.847268,1.04933 -0.06722,1.15456 -0.865716,0.0996 -0.874537,0.54304 -0.01561,0.78495 0.540245,0.15216 0.517563,0.17511 -0.196052,0.19844 -0.443839,0.0145 -0.949854,-0.11651 -1.124479,-0.29113 z m 1.27,-1.40229 c 0,-0.21828 -0.119063,-0.39688 -0.264584,-0.39688 -0.145521,0 -0.264583,0.1786 -0.264583,0.39688 0,0.21828 0.119062,0.39687 0.264583,0.39687 0.145521,0 0.264584,-0.17859 0.264584,-0.39687 z m 3.704166,0.78544 c 0,-0.59807 -0.146947,-0.99073 -0.408297,-1.09102 -0.361344,-0.13866 -0.356628,-0.21377 0.04101,-0.65315 0.724726,-0.80082 0.896457,-0.59181 0.896457,1.09102 0,0.88194 -0.117592,1.5875 -0.264583,1.5875 -0.145521,0 -0.264584,-0.42046 -0.264584,-0.93435 z m 17.594792,21.70414 V 71.503768 l -41.335891,-0.06697 -41.3359,-0.06697 -0.13956,0.596139 c -0.0768,0.327878 -0.16841,2.382078 -0.20369,4.564888 l -0.0641,3.96875 -24.60626,0.13229 -24.60625,0.13229 -0.0821,0.99219 -0.0821,0.99219 33.55191,0.0305 c 18.45355,0.0167 33.79003,0.008 34.08108,-0.0189 0.29104,-0.0272 1.77932,-1.29167 3.30729,-2.81004 l 2.77812,-2.76067 0.13229,-1.65219 0.1323,-1.6522 h 1.71979 1.71979 v 1.71979 1.71979 l -1.60402,0.0775 -1.60401,0.0775 -2.48341,2.49377 c -1.36587,1.37158 -2.41775,2.55943 -2.3375,2.63968 0.0802,0.0802 11.58071,0.14243 25.5566,0.1382 13.975877,-0.004 25.60198,0.0657 25.835783,0.15541 0.38721,0.14859 0.425096,3.05705 0.425096,32.634465 0,17.85924 0.08172,32.55307 0.181606,32.65296 0.09988,0.0999 2.629962,0.14949 5.622396,0.11024 l 5.44079,-0.0714 z m -20.71685,-33.40364 c 0.07556,-1.4487 0.114866,-1.52543 0.822954,-1.60662 0.902211,-0.10345 1.505354,0.34653 1.505354,1.12307 0,0.7451 -0.478516,1.21115 -1.243541,1.21115 -0.364537,0 -0.608542,0.15913 -0.608542,0.39687 0,0.21829 -0.125004,0.39688 -0.277787,0.39688 -0.170987,0 -0.24728,-0.58491 -0.198438,-1.52135 z m 1.605826,-0.1323 c 0.169388,-0.4856 -0.07612,-0.99218 -0.480835,-0.99218 -0.464824,0 -0.732537,0.4584 -0.548224,0.93871 0.180674,0.47083 0.870965,0.5067 1.029059,0.0535 z m 2.721614,0.61919 c -0.197892,-0.32019 0.116962,-1.11379 0.377906,-0.95252 0.394984,0.24411 0.496279,1.19323 0.127349,1.19323 -0.19607,0 -0.423434,-0.10832 -0.505255,-0.24071 z m 1.596908,-0.0458 c -0.06901,-0.20623 -0.162836,-0.60787 -0.2085,-0.89253 -0.04589,-0.2861 -0.378235,-0.59971 -0.743096,-0.70124 -0.363037,-0.10101 -0.481475,-0.19715 -0.263194,-0.21365 0.218282,-0.0165 0.65714,-0.0998 0.975241,-0.18509 0.498597,-0.13371 0.603522,-0.021 0.760758,0.81713 0.18479,0.98502 -0.253882,1.97427 -0.521209,1.17538 z m 4.49265,-0.12928 c -0.228675,-0.22868 -0.415774,-0.57736 -0.415774,-0.77486 0,-0.4489 0.721993,-1.19062 1.158954,-1.19062 0.180074,0 0.558523,0.17058 0.840997,0.37906 0.404348,0.29844 0.445088,0.44854 0.191536,0.7057 -0.255031,0.25866 -0.357284,0.23484 -0.491329,-0.11448 -0.0931,-0.24261 -0.335128,-0.44111 -0.53784,-0.44111 -0.467441,0 -0.501062,1.48994 -0.03784,1.67685 0.232693,0.0939 0.238295,0.13964 0.0189,0.15434 -0.171506,0.0115 -0.498928,-0.16621 -0.727604,-0.39488 z m 4.054582,-0.14096 c -0.42193,-0.42193 -0.517643,-0.75215 -0.395303,-1.36384 0.43115,-2.15576 2.290576,-2.02165 2.352691,0.16968 0.046,1.62288 -0.932005,2.21955 -1.957388,1.19416 z m 1.29771,-1.27271 c -0.05294,-0.63154 -0.212198,-0.94869 -0.476399,-0.94869 -0.452377,0 -0.651861,0.93034 -0.407902,1.90235 0.261166,1.04057 0.985948,0.25894 0.884301,-0.95366 z m -12.768234,1.23413 c -0.216698,-0.68651 0.002,-2.4073 0.31944,-2.51332 0.238283,-0.0796 0.330729,0.30246 0.330729,1.36679 0,0.83842 -0.11801,1.47726 -0.272887,1.47726 -0.150088,0 -0.319865,-0.14883 -0.377282,-0.33073 z m 4.139927,-0.66146 c 0.07439,-0.89885 0.156789,-0.99535 0.875866,-1.02576 1.035188,-0.0438 1.455209,0.3189 1.455209,1.25659 0,0.99995 -0.439446,0.97842 -0.661459,-0.0324 -0.09589,-0.43657 -0.34347,-0.79375 -0.550189,-0.79375 -0.241225,0 -0.375851,0.28431 -0.375851,0.79375 0,0.54281 -0.130517,0.79375 -0.412847,0.79375 -0.315277,0 -0.39344,-0.23449 -0.330729,-0.99219 z m -131.793954,40.7668 c 0.15458,-0.15458 0.23065,-1.86615 0.18705,-4.20872 l -0.0735,-3.94819 -11.9724,-0.0688 -11.97239,-0.0688 v 4.19193 c 0,2.30557 0.0496,4.24154 0.11023,4.30218 0.24627,0.2463 23.4705,0.051 23.72099,-0.19952 z m -18.11118,-2.87154 c -0.23561,-0.2356 -0.42838,-0.59846 -0.42838,-0.80635 0,-0.61682 -0.52238,-0.43025 -0.79375,0.28348 -0.39313,1.03402 -0.91867,0.78234 -1.38022,-0.66097 -0.4909,-1.53507 -0.17627,-2.00606 0.49214,-0.73674 l 0.45736,0.86855 0.25364,-0.8599 c 0.30212,-1.02428 0.88579,-1.11803 1.23542,-0.19844 0.13832,0.36381 0.37123,0.66146 0.51758,0.66146 0.14635,0 0.34079,-0.29765 0.4321,-0.66146 0.16143,-0.64318 0.39553,-0.81555 0.6975,-0.51357 0.13464,0.13464 -0.68181,2.6791 -0.94368,2.94097 -0.0612,0.0612 -0.30411,-0.0814 -0.53971,-0.31703 z m 2.52644,-0.0188 c -0.87505,-0.61291 -0.71767,-2.18505 0.27421,-2.73924 0.65998,-0.36875 0.77285,-0.3571 1.4552,0.15015 1.01881,0.75736 1.09471,1.7392 0.1895,2.45124 -0.85301,0.67098 -1.12942,0.69083 -1.91891,0.13785 z m 1.53256,-0.75591 c 0.48287,-0.58182 0.0843,-1.51581 -0.60479,-1.41719 -0.58464,0.0837 -0.86587,0.74267 -0.60597,1.41995 0.18831,0.49074 0.80235,0.48934 1.21076,-0.003 z m 4.50846,0.64876 c -1.0652,-1.0652 -0.43201,-2.74617 1.0189,-2.70492 0.65535,0.0186 0.83318,-0.0855 0.83318,-0.48778 0,-0.2847 0.1811,-0.51147 0.40847,-0.51147 0.33782,0 0.39502,0.33177 0.33073,1.91823 -0.0728,1.79717 -0.11531,1.91691 -0.67305,1.89722 -0.32742,-0.0115 -0.59531,0.0778 -0.59531,0.19844 0,0.40789 -0.79034,0.22286 -1.32292,-0.30972 z m 1.71979,-1.19425 c 0,-0.66641 -0.10357,-0.79013 -0.66146,-0.79013 -0.49587,0 -0.68381,0.1581 -0.75075,0.63154 -0.0951,0.6729 0.36298,1.13229 1.01534,1.01816 0.24867,-0.0435 0.39687,-0.36448 0.39687,-0.85957 z m 3.77031,1.3551 c -0.25466,-0.19331 -0.46302,-0.56517 -0.46302,-0.82634 0,-0.44328 0.0322,-0.44573 0.48386,-0.037 0.52988,0.47954 1.25202,0.57538 1.48576,0.19718 0.22833,-0.36944 -0.12912,-1.08221 -0.54272,-1.08221 -0.48429,0 -0.46919,-0.38086 0.0316,-0.79646 0.60358,-0.50093 -6.4e-4,-1.14645 -0.71516,-0.76404 -0.65598,0.35106 -0.9275,0.11687 -0.48403,-0.41748 0.38717,-0.46651 1.14425,-0.52035 1.86829,-0.13286 0.37364,0.19997 0.4938,0.52739 0.46123,1.25678 -0.0242,0.54249 0.0463,1.18255 0.15673,1.42235 0.1355,0.29427 0.007,0.61681 -0.39623,0.99219 -0.68342,0.6367 -1.22408,0.69055 -1.88628,0.18787 z m -8.29416,-0.26532 c -0.0779,-0.20298 -0.10392,-0.82383 -0.0578,-1.37967 0.0746,-0.8995 0.17674,-1.02948 0.92931,-1.1821 0.59495,-0.12065 0.88654,-0.0646 0.98389,0.18905 0.0862,0.22474 -0.0472,0.36052 -0.35421,0.36052 -0.56244,0 -0.81376,0.49697 -0.81376,1.60914 0,0.79744 -0.43759,1.05403 -0.68739,0.40306 z m 37.00146,3.30763 c 0.10914,-0.0155 0.19843,-1.93316 0.19843,-4.26149 v -4.23334 h -12.03854 -12.03854 v 4.21576 4.21576 l 0.7276,0.0837 c 0.63496,0.0731 22.62908,0.0537 23.15105,-0.0204 z m -20.30671,-3.64068 c -0.44572,-1.06677 -0.52366,-2.20831 -0.15076,-2.20831 0.1354,0 0.28423,0.26667 0.33073,0.59261 0.11724,0.82178 0.94445,0.9396 1.05631,0.15046 0.11559,-0.81551 0.81641,-0.78044 1.01261,0.0507 0.0859,0.3638 0.26633,0.66145 0.40099,0.66145 0.13466,0 0.39324,-0.29765 0.57462,-0.66145 0.59707,-1.19761 0.92171,-0.36429 0.36076,0.92604 -0.12653,0.29104 -0.30044,0.74742 -0.38647,1.01419 -0.20067,0.6222 -0.79289,0.43454 -0.89922,-0.28494 -0.12196,-0.82514 -0.8073,-0.96929 -0.9979,-0.20989 -0.26216,1.04452 -0.85826,1.03039 -1.30167,-0.0308 z m 4.80344,0.48283 c -0.57322,-0.6334 -0.55974,-1.87884 0.0251,-2.32283 1.63836,-1.2437 3.62803,0.8323 2.18281,2.27752 -0.66035,0.66035 -1.63328,0.68032 -2.20795,0.0453 z m 1.94337,-0.95902 c 0,-1.27249 -1.18705,-1.70413 -1.47971,-0.53806 -0.22557,0.89871 0.30395,1.53323 0.97833,1.17232 0.27576,-0.14759 0.50138,-0.433 0.50138,-0.63426 z m 1.48611,1.03111 c -0.20875,-0.54399 -0.21014,-1.80385 -0.003,-2.34472 0.10279,-0.26784 0.4838,-0.41851 1.05834,-0.41851 0.98021,0 1.21424,0.38468 0.36857,0.60583 -0.40096,0.10485 -0.52917,0.36089 -0.52917,1.05679 0,1.04407 -0.62293,1.80999 -0.89514,1.10061 z m 2.63785,-0.16497 c -0.87245,-1.2456 -0.42429,-2.33024 1.0627,-2.57194 0.78393,-0.12742 1.04703,-0.31059 1.18176,-0.82272 0.29377,-1.11663 0.54589,-0.0208 0.4576,1.98893 l -0.0791,1.80149 -1.10155,0.1018 c -0.9107,0.0841 -1.1743,-0.002 -1.52136,-0.49756 z m 1.96146,-1.18376 c 0,-0.75157 -0.63624,-1.08086 -1.194,-0.61796 -0.50962,0.42295 -0.49897,0.91228 0.0314,1.44265 0.54149,0.54149 1.1626,0.10091 1.1626,-0.82469 z m 3.96974,1.06529 c 5.4e-4,-0.418 0.23866,-1.14983 0.52916,-1.62629 0.71308,-1.16956 0.66875,-1.38267 -0.28762,-1.38267 -1.13154,0 -0.86193,-0.64137 0.30708,-0.73051 1.56865,-0.11962 1.74101,0.21183 0.94294,1.81334 -0.38434,0.77128 -0.6988,1.54296 -0.6988,1.71485 0,0.17189 -0.1786,0.46075 -0.39688,0.6419 -0.33713,0.2798 -0.39673,0.21498 -0.39588,-0.43062 z m 31.43839,0.0844 c 0.0499,-0.26316 0.0181,-0.66795 -0.0708,-0.89953 -0.13866,-0.36135 -0.25438,-0.33386 -0.81612,0.19387 -0.88517,0.83156 -0.85484,1.37469 0.0708,1.26785 0.44763,-0.0517 0.7601,-0.26691 0.81612,-0.56219 z m -1.28337,-1.10212 c 0.52773,-0.56174 0.55522,-0.67746 0.19387,-0.81613 -0.78966,-0.30302 -1.37519,-0.004 -1.46173,0.74534 -0.10684,0.92563 0.43629,0.95595 1.26786,0.0708 z m 7.73232,-7.7592 2.8575,-2.8575 v -1.47981 c 0,-1.683556 0.1345,-1.801016 2.06215,-1.801016 1.08328,0 1.35645,-0.1289 2.35961,-1.113424 0.62397,-0.61238 1.13449,-1.26824 1.13449,-1.45745 0,-0.27899 -2.76362,-0.3311 -14.61823,-0.27564 l -14.61823,0.0684 -0.0724,4.40459 c -0.0536,3.25737 -0.16355,4.48021 -0.42232,4.69497 -0.24711,0.20508 -7.53196,0.31022 -24.79841,0.35791 l -24.44852,0.0675 -0.0859,0.74996 c -0.0472,0.41247 -0.0212,0.91849 0.0578,1.12448 0.1229,0.32027 5.03921,0.37452 33.93931,0.37452 h 33.7956 z m -46.67916,-4.48739 0.0727,-4.30218 -11.97896,0.0688 -11.97897,0.0689 -0.0734,3.774094 c -0.0451,2.315486 0.0358,3.978196 0.20922,4.302216 0.27679,0.51719 0.525,0.52671 11.97968,0.45924 l 11.69703,-0.0689 z m -15.22226,1.23244 c -0.93767,-0.34854 -1.27273,-1.34954 -0.72934,-2.178856 0.59398,-0.90653 1.33552,-1.11093 2.13351,-0.58807 0.47495,0.3112 0.6485,0.66244 0.6485,1.312456 0,1.23317 -0.91115,1.87879 -2.05267,1.45447 z m 1.3597,-1.09248 c 0.22038,-0.35158 0.1853,-0.559876 -0.1509,-0.896066 -0.63194,-0.63195 -1.2728,-0.27811 -1.2728,0.702766 0,0.68914 0.091,0.80692 0.56829,0.73591 0.31256,-0.0465 0.6975,-0.29068 0.85541,-0.54261 z m -6.39786,0.80202 c -0.17463,-0.17463 -0.3175,-0.52479 -0.3175,-0.77814 0,-0.25335 -0.11907,-0.534216 -0.26459,-0.624156 -0.3437,-0.21242 -0.34433,-1.19062 -7.6e-4,-1.19062 0.14511,0 0.42186,0.38695 0.615,0.8599 l 0.35118,0.859886 0.37719,-0.774206 c 0.51733,-1.06187 0.90579,-1.11131 1.2977,-0.16517 0.34771,0.839456 0.79928,0.854156 0.79928,0.026 0,-0.57211 0.69397,-0.91735 0.96441,-0.47977 0.10318,0.16696 0.0475,0.35027 -0.12382,0.40737 -0.17129,0.0571 -0.31143,0.26688 -0.31143,0.46618 0,0.623596 -0.59891,1.710196 -0.94263,1.710196 -0.18068,0 -0.47168,-0.38696 -0.64664,-0.8599 l -0.31813,-0.859896 -0.36997,0.859896 c -0.39976,0.92911 -0.61657,1.03512 -1.10929,0.5424 z m 8.06097,0.14111 c -0.2423,-0.2423 -0.22354,-2.411766 0.0221,-2.549536 0.10914,-0.0612 0.52586,-0.18959 0.92604,-0.28524 0.53947,-0.12895 0.7276,-0.0746 0.7276,0.21017 0,0.21125 -0.23812,0.45966 -0.52916,0.55204 -0.41099,0.13044 -0.52917,0.40032 -0.52917,1.208446 0,0.97723 -0.21013,1.27135 -0.61736,0.86412 z m 2.52236,-0.14111 c -0.17463,-0.17463 -0.3175,-0.70767 -0.3175,-1.18453 0,-0.968856 0.92719,-1.808216 1.67883,-1.519786 0.30219,0.11596 0.50847,-0.0399 0.69219,-0.523164 0.49199,-1.29402 0.80398,-0.73974 0.80398,1.428314 v 2.116666 h -1.27 c -0.6985,0 -1.41288,-0.14288 -1.5875,-0.3175 z m 1.866,-0.70326 c 0.1606,-0.614106 -0.2376,-1.360486 -0.72583,-1.360486 -0.52812,0 -0.73861,0.46015 -0.5515,1.205656 0.1937,0.77173 1.08767,0.8801 1.27733,0.15483 z m 3.37275,0.67578 c 0,-0.18973 0.41672,-0.74887 0.92604,-1.242516 0.92573,-0.89725 1.17462,-1.66723 0.64479,-1.994684 -0.15469,-0.0956 -0.51261,0.0355 -0.79538,0.291444 -0.60024,0.54322 -1.01761,0.29575 -0.60712,-0.359984 0.44439,-0.70987 1.81777,-0.72619 2.30721,-0.0274 0.45164,0.644814 0.25559,1.289174 -0.65934,2.16708 -0.67558,0.64825 -0.61844,0.98188 0.16817,0.98188 0.36381,0 0.66146,0.11906 0.66146,0.26458 0,0.14552 -0.59531,0.26459 -1.32291,0.26459 -0.91108,0 -1.32292,-0.1074 -1.32292,-0.34498 z m 29.24134,2.92466 c 0.081,-0.32742 0.11303,-2.26218 0.0712,-4.299476 l -0.0761,-3.704164 h -11.90625 -11.90625 l -0.0734,3.93291 c -0.0499,2.67499 0.0239,4.05015 0.23084,4.29948 0.25078,0.30217 2.34272,0.36657 11.90846,0.36657 h 11.60422 z m -19.87972,-2.53114 c -0.47205,-0.31624 -1.20794,-2.487216 -0.93545,-2.759706 0.15864,-0.15864 0.38443,0.0266 0.61247,0.50234 0.44544,0.929376 0.81007,0.962466 1.01553,0.0922 0.19169,-0.81204 0.89578,-0.87389 1.00765,-0.0885 0.13335,0.936056 0.83483,0.996406 1.01662,0.0875 0.17547,-0.87734 0.62766,-0.81599 0.61047,0.0828 -0.0157,0.822956 -0.86417,2.315676 -1.18822,2.090556 -0.1488,-0.10337 -0.39899,-0.4856 -0.55599,-0.8494 l -0.28545,-0.66146 -0.51385,0.84229 c -0.28262,0.46326 -0.63532,0.76092 -0.78378,0.66146 z m 4.45558,-0.19584 c -1.07072,-0.74996 -0.63182,-2.339816 0.78414,-2.840406 0.69607,-0.24609 1.80283,0.77851 1.80283,1.668986 0,0.78679 -0.79862,1.5833 -1.5875,1.5833 -0.22629,0 -0.67604,-0.18535 -0.99947,-0.41188 z m 1.66495,-0.92373 c 0.18907,-0.595686 -0.26092,-1.310216 -0.82513,-1.310216 -0.40474,0 -0.77635,1.143286 -0.51111,1.572456 0.29459,0.47665 1.15534,0.30773 1.33624,-0.26224 z m 4.67523,1.16087 c -0.49191,-0.20554 -0.87165,-1.33796 -0.69059,-2.059376 0.18699,-0.74501 1.23514,-1.29978 1.65759,-0.87734 0.20655,0.20656 0.36243,0.0894 0.55507,-0.41733 0.48777,-1.282944 0.81013,-0.773684 0.81013,1.27983 0,1.712116 -0.0635,1.984866 -0.46302,1.987986 -0.25466,0.002 -0.70114,0.0549 -0.99219,0.11759 -0.29104,0.0627 -0.68568,0.0486 -0.87699,-0.0314 z m 1.48662,-1.44511 c 0.092,-0.793236 -0.58785,-1.218636 -1.17233,-0.733566 -0.38836,0.32231 -0.48459,1.085636 -0.17579,1.394436 0.4312,0.4312 1.26911,0.0204 1.34812,-0.66087 z m 3.81487,1.20797 c -0.80627,-0.56473 -0.84282,-2.772916 -0.0589,-3.55687 0.63046,-0.63046 1.3956,-0.68233 1.85739,-0.1259 0.43988,0.530034 0.17384,0.769564 -0.47128,0.4243 -0.36244,-0.19397 -0.60013,-0.1848 -0.81641,0.0315 -0.47355,0.473554 -0.36321,0.728454 0.31533,0.728454 0.75033,0 1.49622,0.76133 1.49622,1.527186 0,0.54136 -0.88568,1.38323 -1.45521,1.38323 -0.15352,0 -0.54375,-0.18535 -0.86717,-0.41188 z m 1.52863,-1.01502 c 0,-0.712056 -0.76831,-1.154176 -1.09927,-0.632576 -0.45704,0.720286 -0.19236,1.265726 0.6142,1.265726 0.33524,0 0.48507,-0.19558 0.48507,-0.63315 z m -10.05417,-0.15556 c 0,-1.184756 0.0668,-1.334626 0.66087,-1.483736 0.36348,-0.0912 0.86949,-0.0809 1.12448,0.0229 0.41469,0.16888 0.40041,0.21821 -0.1353,0.46745 -0.41295,0.19212 -0.64936,0.59418 -0.76142,1.294926 -0.24816,1.55192 -0.88863,1.33457 -0.88863,-0.30158 z m 39.90752,0.52413 0.0877,-0.926046 -0.68304,0.641436 c -0.85492,0.80285 -0.89604,1.41 -0.0877,1.2952 0.46676,-0.0663 0.61426,-0.28453 0.68304,-1.01059 z m -1.1404,-0.53542 c 0.37774,-0.417396 0.41434,-0.605626 0.16602,-0.853946 -0.42704,-0.42704 -1.20077,0.0562 -1.31456,0.821066 -0.1085,0.72927 0.50249,0.74676 1.14854,0.0329 z m 7.99082,-7.9974 2.96076,-2.97656 0.0776,-1.5875 0.0776,-1.5875 1.6112,-0.0777 c 1.47682,-0.0712 1.69452,-0.16299 2.61007,-1.10059 0.54937,-0.56261 0.91863,-1.15274 0.82058,-1.3114 -0.12516,-0.20251 -4.46745,-0.28846 -14.57315,-0.28846 -13.961,0 -14.40313,0.0154 -14.66876,0.51177 -0.15492,0.28947 -0.2739,2.28845 -0.2739,4.6019 0,3.48559 -0.0619,4.11387 -0.41851,4.25073 -0.23018,0.0883 -11.36253,0.1606 -24.73854,0.1606 h -24.32003 v 1.19062 1.19063 h 33.93713 33.93713 z m -46.75794,-4.43177 v -4.23333 h -12.03854 -12.03854 v 4.23333 4.23334 h 12.03854 12.03854 z m -15.55154,1.17562 c -0.86832,-0.60819 -0.81133,-2.07545 0.10391,-2.67513 0.61439,-0.40257 0.76796,-0.41067 1.37022,-0.0722 0.37305,0.20963 0.76907,0.72095 0.88004,1.13628 0.16216,0.60696 0.0773,0.87955 -0.43216,1.38907 -0.74125,0.74125 -1.11851,0.78483 -1.92201,0.22203 z m 1.52863,-1.21223 c 0,-0.87603 -0.59468,-1.25173 -1.194,-0.75434 -0.50382,0.41813 -0.5,0.91125 0.011,1.42227 0.58059,0.5806 1.18297,0.24048 1.18297,-0.66793 z m 4.4754,1.15523 c -0.63014,-0.44137 -0.68179,-1.9668 -0.0834,-2.46341 0.23277,-0.19319 0.76011,-0.32558 1.17186,-0.2942 0.59711,0.0455 0.76581,-0.064 0.83354,-0.54105 0.19143,-1.34838 0.61904,-0.46717 0.69083,1.42364 l 0.0768,2.02171 -1.09146,0.10409 c -0.64642,0.0617 -1.29805,-0.0406 -1.59811,-0.25078 z m 1.62771,-0.62252 c 0.44125,-0.82447 -0.15735,-1.90449 -0.85007,-1.53376 -0.82435,0.44118 -0.4681,1.952 0.49233,2.08795 0.0313,0.004 0.19225,-0.24496 0.35774,-0.55419 z m -12.67142,0.11146 c -0.57194,-1.44595 -0.68104,-2.27434 -0.28206,-2.14148 0.20244,0.0674 0.4094,0.35082 0.4599,0.62981 0.17501,0.9667 0.56476,1.03881 0.89441,0.16546 0.40913,-1.08391 0.86217,-1.07994 1.25969,0.011 l 0.31331,0.85989 0.42203,-0.85989 c 0.23212,-0.47294 0.51949,-0.8599 0.63861,-0.8599 0.29408,0 0.27512,0.89175 -0.0256,1.20386 -0.1332,0.13824 -0.28202,0.54779 -0.33073,0.91011 -0.12005,0.89311 -0.84639,0.97918 -1.22633,0.14531 -0.37832,-0.83033 -0.78207,-0.86607 -0.89433,-0.0792 -0.12564,0.88063 -0.88284,0.88984 -1.2289,0.0149 z m 8.15581,-0.70982 c 0,-1.37878 0.0256,-1.42894 0.78759,-1.54077 1.15334,-0.16928 1.48212,0.15898 0.6834,0.68232 -0.51167,0.33525 -0.67724,0.66866 -0.67724,1.36369 0,0.64133 -0.1202,0.91994 -0.39688,0.91994 -0.30366,0 -0.39687,-0.33474 -0.39687,-1.42518 z m 9.20876,0.16841 c -0.07,-1.09075 -0.16302,-1.26843 -0.70427,-1.34503 l -0.62363,-0.0883 0.73027,-0.76223 c 0.40164,-0.41922 0.8311,-0.6999 0.95435,-0.62373 0.30901,0.19098 0.28424,4.07602 -0.026,4.07602 -0.13754,0 -0.28637,-0.56555 -0.33073,-1.25677 z m 28.15995,0.33073 c -0.0145,-2.03729 -0.0345,-3.91253 -0.0444,-4.16719 -0.0169,-0.43392 -0.77453,-0.46302 -12.05656,-0.46302 h -12.03854 v 4.05694 c 0,2.23132 0.0806,4.13752 0.17906,4.236 0.0985,0.0985 5.53582,0.14809 12.08299,0.11024 l 11.90393,-0.0688 z m -15.8172,0.54119 c -0.80849,-0.80849 -0.81628,-1.21825 -0.0371,-1.95028 0.69984,-0.65746 1.82033,-0.75403 2.28283,-0.19675 0.50281,0.60584 0.42893,2.03306 -0.12625,2.43902 -0.72331,0.5289 -1.39054,0.43698 -2.11951,-0.29199 z m 1.84386,-0.49079 c 0.36321,-0.57581 -0.10272,-1.37332 -0.80233,-1.37332 -0.35523,0 -0.52566,0.22188 -0.58767,0.76504 -0.13307,1.16569 0.78498,1.56743 1.39,0.60828 z m 4.30933,0.67265 c -0.58601,-0.64753 -0.58048,-1.89057 0.0104,-2.33911 0.25466,-0.19332 0.79044,-0.35527 1.19063,-0.3599 0.54841,-0.006 0.7276,-0.13874 0.7276,-0.53758 0,-0.29399 0.17639,-0.52917 0.39687,-0.52917 0.31751,0 0.39688,0.39687 0.39688,1.98437 0,1.88042 -0.0312,1.98457 -0.59531,1.98799 -0.32742,0.002 -0.83812,0.0688 -1.13489,0.14858 -0.33717,0.0906 -0.70934,-0.0426 -0.99218,-0.35518 z m 1.78306,-0.76434 c 0.11921,-0.47498 0.0427,-0.83638 -0.2359,-1.11503 -0.37332,-0.37332 -0.45422,-0.37034 -0.85608,0.0315 -0.36553,0.36553 -0.38986,0.56218 -0.13796,1.11503 0.39792,0.87335 1.00675,0.85775 1.22994,-0.0315 z m 3.63807,0.91441 c -0.17462,-0.17462 -0.3175,-0.48597 -0.3175,-0.69189 0,-0.30264 0.13261,-0.2875 0.69203,0.079 0.63748,0.41769 0.72576,0.4197 1.11999,0.0255 0.65105,-0.65106 0.0763,-1.36444 -1.0248,-1.27211 -0.85067,0.0713 -0.85693,0.0632 -0.69987,-0.90463 0.18609,-1.14671 0.5485,-1.44707 1.63244,-1.35294 0.99478,0.0864 1.04165,0.56957 0.0661,0.68181 -0.67216,0.0773 -0.83192,0.26481 -0.66146,0.77618 0.0364,0.10914 0.16929,0.16405 0.29536,0.12203 0.49147,-0.16382 1.49058,0.76816 1.49058,1.39042 0,1.11849 -1.81738,1.92215 -2.59292,1.14661 z m -16.57384,-1.29918 c -0.24324,-0.74365 -0.37477,-1.41957 -0.2923,-1.50204 0.18808,-0.18808 0.91847,0.75493 0.92981,1.20049 0.0153,0.60137 0.41669,0.34366 0.72117,-0.46302 0.16479,-0.43656 0.41457,-0.79375 0.55508,-0.79375 0.1405,0 0.40342,0.35719 0.58425,0.79375 0.3693,0.89158 0.79375,1.05038 0.79375,0.29698 0,-0.60874 0.67276,-1.23596 0.91145,-0.84975 0.0906,0.14666 0.0545,0.47987 -0.0803,0.74045 -0.13479,0.26058 -0.3744,0.8012 -0.53246,1.20139 -0.35861,0.90794 -1.02823,0.94342 -1.24841,0.0661 -0.0913,-0.3638 -0.25306,-0.66146 -0.35944,-0.66146 -0.10639,0 -0.32906,0.29766 -0.49482,0.66146 -0.47365,1.03955 -1.00214,0.79423 -1.48781,-0.69064 z m 8.31884,0.31541 c 0,-1.59261 0.19465,-1.87498 1.28508,-1.86421 l 0.96388,0.01 -0.72761,0.59574 c -0.51912,0.42504 -0.7276,0.83928 -0.7276,1.44569 0,0.57913 -0.12646,0.84996 -0.39688,0.84996 -0.28525,0 -0.39687,-0.29158 -0.39687,-1.03669 z m 40.36883,0.39027 c 0.26062,-1.03841 -0.11742,-1.33054 -0.84153,-0.65027 -0.81875,0.76917 -0.80945,1.29669 0.0229,1.29669 0.47545,0 0.70114,-0.17821 0.81866,-0.64642 z m -1.24226,-1.03956 c 0.53067,-0.56487 0.54478,-0.64485 0.14114,-0.79975 -0.75206,-0.28859 -1.43229,0.0836 -1.43229,0.78377 0,0.81756 0.53192,0.82414 1.29115,0.016 z m -39.52345,-11.67548 v -4.233332 h -11.90625 -11.90625 l -0.0735,3.957122 c -0.0404,2.17642 -0.0139,4.11242 0.0589,4.30221 0.1067,0.27804 2.43401,0.3317 11.97978,0.27621 l 11.84736,-0.0689 z m -20.37891,0.82174 c -0.42874,-0.65434 -0.84796,-2.54153 -0.56458,-2.54153 0.0881,0 0.34684,0.36108 0.57505,0.8024 0.43287,0.83707 0.92157,0.83921 0.92157,0.004 0,-0.85831 0.75499,-0.85512 1.19981,0.005 0.43491,0.84104 0.91686,0.8235 0.91686,-0.0334 0,-0.28991 0.18059,-0.51355 0.4147,-0.51355 0.44281,0 0.38984,0.36226 -0.29948,2.04783 -0.37851,0.92557 -1.17356,0.9636 -1.17356,0.0562 0,-0.83517 -0.4887,-0.83303 -0.92157,0.004 -0.49981,0.96654 -0.54183,0.97318 -1.0688,0.16893 z m 4.69508,0.22159 c -0.73418,-0.51423 -0.76099,-1.53184 -0.0589,-2.23395 1.04344,-1.04345 2.64583,-0.3589 2.64583,1.13031 0,0.71828 -0.83511,1.51552 -1.5875,1.51552 -0.22628,0 -0.67604,-0.18535 -0.99946,-0.41188 z m 1.79321,-1.17562 c 0,-0.72926 -0.70334,-1.19816 -1.19063,-0.79375 -0.51283,0.42562 -0.50336,0.91404 0.028,1.44544 0.49753,0.49754 1.16259,0.12474 1.16259,-0.65169 z m 4.43177,1.30133 c -0.31343,-0.18229 -0.46302,-0.5965 -0.46302,-1.28208 0,-1.14587 0.52024,-1.73999 1.33666,-1.52649 0.40012,0.10463 0.62445,-0.0301 0.84075,-0.50479 0.16226,-0.35613 0.42333,-0.60521 0.58016,-0.55351 0.33544,0.11058 0.54288,3.3484 0.23264,3.63105 -0.3878,0.35331 -2.05732,0.50909 -2.52719,0.23582 z m 1.65365,-1.30133 c 0,-0.40542 -0.17515,-0.80435 -0.38922,-0.88649 -0.38655,-0.14833 -1.19828,0.45219 -1.19828,0.88649 0,0.4343 0.81173,1.03482 1.19828,0.88649 0.21407,-0.0821 0.38922,-0.48107 0.38922,-0.88649 z m 3.61288,1.10365 c -0.2881,-0.31834 -0.43788,-0.94981 -0.43788,-1.84599 0,-1.16744 0.0962,-1.4252 0.67345,-1.80339 0.5657,-0.37067 0.7738,-0.38756 1.30063,-0.10561 1.56329,0.83665 1.07356,4.23884 -0.61016,4.23884 -0.26849,0 -0.68521,-0.21773 -0.92604,-0.48385 z m 1.62646,-1.69896 c -0.0683,-1.18602 -0.15732,-1.38907 -0.60914,-1.38907 -0.42317,0 -0.54594,0.20432 -0.61294,1.02002 -0.10903,1.3275 0.0748,1.75811 0.75076,1.75811 0.49882,0 0.54369,-0.13221 0.47132,-1.38906 z m -9.68494,0.52916 c 0.078,-1.35458 0.10131,-1.39112 0.93987,-1.47197 0.94898,-0.0915 1.21101,0.43751 0.33073,0.66771 -0.41457,0.10841 -0.52917,0.36089 -0.52917,1.16585 0,0.7523 -0.10999,1.02748 -0.4107,1.02748 -0.32922,0 -0.39484,-0.2756 -0.33073,-1.38907 z m 37.09333,4.14555 c 0.31184,-0.81262 0.17744,-7.660892 -0.1569,-7.995234 -0.45673,-0.456735 -23.24993,-0.456735 -23.70667,0 -0.33434,0.334342 -0.46873,7.182614 -0.1569,7.995234 0.14314,0.37301 1.44899,0.41852 12.01024,0.41852 10.56124,0 11.86709,-0.0455 12.01023,-0.41852 z m -15.40922,-2.69034 c -0.30096,-0.25466 -0.62078,-0.77474 -0.7107,-1.15574 -0.12936,-0.54805 -0.0137,-0.81053 0.55356,-1.25677 0.92363,-0.72653 1.31693,-0.71064 2.11295,0.0854 0.8314,0.8314 0.81948,1.3349 -0.0507,2.14133 -0.83139,0.77051 -1.17458,0.80398 -1.90514,0.1858 z m 1.49916,-0.76518 c 0.3819,-0.68242 0.0623,-1.41763 -0.61627,-1.41763 -0.71957,0 -1.02675,0.63558 -0.64865,1.34208 0.33416,0.62437 0.93761,0.66041 1.26492,0.0756 z m 4.93974,0.89991 c -0.70558,-0.38597 -0.91514,-0.73492 -0.91514,-1.52379 0,-1.01543 0.41442,-1.45521 1.37131,-1.45521 0.70679,0 0.88574,-0.11428 0.95609,-0.61056 0.1596,-1.12596 0.70621,-0.42339 0.78898,1.01409 0.10845,1.88359 -0.11243,2.7348 -0.65556,2.52638 -0.23063,-0.0885 -0.55433,-0.0489 -0.71932,0.0881 -0.1894,0.15718 -0.49405,0.14282 -0.82636,-0.039 z m 1.1405,-0.78296 c 0.43338,-0.43337 0.39841,-0.88671 -0.1074,-1.39252 -0.32807,-0.32807 -0.50897,-0.35514 -0.79375,-0.1188 -0.45853,0.38055 -0.48373,1.47379 -0.0381,1.65359 0.51739,0.20877 0.60088,0.19613 0.93927,-0.14227 z m -12.74343,-0.28666 c -0.23805,-0.62332 -0.43282,-1.27817 -0.43282,-1.4552 0,-0.57084 0.53456,-0.34215 0.79375,0.33957 0.31273,0.82253 0.72942,0.85528 0.8415,0.0662 0.0555,-0.39074 0.26639,-0.59532 0.61371,-0.59532 0.34733,0 0.55822,0.20458 0.61372,0.59532 0.10815,0.76153 0.77793,0.77713 0.88923,0.0207 0.0914,-0.62114 0.74601,-1.01469 0.74601,-0.44849 0,0.72499 -0.88229,2.61058 -1.22153,2.61058 -0.19574,0 -0.4306,-0.29766 -0.5219,-0.66146 -0.0913,-0.3638 -0.3188,-0.66146 -0.50553,-0.66146 -0.18673,0 -0.41421,0.29766 -0.50552,0.66146 -0.25139,1.00159 -0.82705,0.79433 -1.31062,-0.47187 z m 8.29843,-0.29711 c 0,-1.37774 0.0215,-1.41814 0.84336,-1.5825 1.10391,-0.22078 1.60811,0.25291 0.65494,0.61531 -0.57333,0.21798 -0.70455,0.43629 -0.70455,1.17215 0,0.55973 -0.15121,0.96231 -0.39687,1.05658 -0.32227,0.12366 -0.39688,-0.1135 -0.39688,-1.26154 z m 9.64788,1.09971 c -0.11101,-0.28637 -0.45917,-0.46302 -0.91254,-0.46302 -1.31566,0 -1.40525,-0.54941 -0.3223,-1.97647 1.50526,-1.98355 1.65054,-1.92543 2.01727,0.80699 0.0959,0.71453 0.0185,1.25122 -0.22902,1.5875 -0.34923,0.47449 -0.38576,0.47746 -0.55341,0.045 z m -0.12288,-1.74184 c 0,-0.26679 -0.0737,-0.55877 -0.16379,-0.64886 -0.24558,-0.24559 -0.95398,0.55912 -0.7635,0.86732 0.27755,0.44909 0.92729,0.29602 0.92729,-0.21846 z m 30.79566,1.38947 c 0.25422,-0.6625 0.1879,-1.16898 -0.15308,-1.16898 -0.36332,0 -1.53841,1.04571 -1.53841,1.36903 0,0.41004 1.52666,0.22948 1.69149,-0.20005 z m -1.5101,-0.95052 c 0.84753,-0.79622 0.79715,-1.33321 -0.11524,-1.22823 -0.60628,0.0698 -0.74143,0.22711 -0.81052,0.94362 -0.0973,1.00954 0.0921,1.06778 0.92576,0.28461 z"
       id="path1" /></g></svg>
